<?xml version="1.0" encoding="UTF-8" standalone="no"?><svg xmlns="http://www.w3.org/2000/svg" xmlns:xlink="http://www.w3.org/1999/xlink" contentStyleType="text/css" height="877px" preserveAspectRatio="none" style="width:1046px;height:877px;background:#FFFFFF;" version="1.1" viewBox="0 0 1046 877" width="1046px" zoomAndPan="magnify"><defs/><g><!--MD5=[468c628577d61d66a0bda2743704dfd4]
cluster es.ua.dlsi.prog3.p6.graph--><g id="cluster_es.ua.dlsi.prog3.p6.graph"><path d="M138.5,6 L315.5,6 A3.75,3.75 0 0 1 318,8.5 L325,28.4883 L1030.5,28.4883 A2.5,2.5 0 0 1 1033,30.9883 L1033,867.5 A2.5,2.5 0 0 1 1030.5,870 L138.5,870 A2.5,2.5 0 0 1 136,867.5 L136,8.5 A2.5,2.5 0 0 1 138.5,6 " fill="none" style="stroke:#000000;stroke-width:1.5;"/><line style="stroke:#000000;stroke-width:1.5;" x1="136" x2="325" y1="28.4883" y2="28.4883"/><text fill="#000000" font-family="sans-serif" font-size="14" font-weight="bold" lengthAdjust="spacing" textLength="176" x="140" y="21.5352">es.ua.dlsi.prog3.p6.graph</text></g><!--MD5=[aa8f7b917213fcc1c2766e2d59b49067]
cluster java.lang--><g id="cluster_java.lang"><path d="M8.5,283 L72.5,283 A3.75,3.75 0 0 1 75,285.5 L82,305.4883 L109.5,305.4883 A2.5,2.5 0 0 1 112,307.9883 L112,373.5 A2.5,2.5 0 0 1 109.5,376 L8.5,376 A2.5,2.5 0 0 1 6,373.5 L6,285.5 A2.5,2.5 0 0 1 8.5,283 " fill="none" style="stroke:#000000;stroke-width:1.5;"/><line style="stroke:#000000;stroke-width:1.5;" x1="6" x2="82" y1="305.4883" y2="305.4883"/><text fill="#000000" font-family="sans-serif" font-size="14" font-weight="bold" lengthAdjust="spacing" textLength="63" x="10" y="298.5352">java.lang</text></g><!--MD5=[99b752abd7219fe4bcb298615f1ab5f7]
class IIdentifiable--><g id="elem_IIdentifiable"><rect codeLine="6" fill="#F1F1F1" height="73.1094" id="IIdentifiable" rx="2.5" ry="2.5" style="stroke:#181818;stroke-width:0.5;" width="133" x="802.5" y="67"/><text fill="#000000" font-family="sans-serif" font-size="12" font-style="italic" lengthAdjust="spacing" textLength="62" x="838" y="83.6016">«Interface»</text><text fill="#000000" font-family="sans-serif" font-size="14" font-style="italic" lengthAdjust="spacing" textLength="81" x="828.5" y="99.668">IIdentifiable</text><line style="stroke:#181818;stroke-width:0.5;" x1="803.5" x2="934.5" y1="107.6211" y2="107.6211"/><line style="stroke:#181818;stroke-width:0.5;" x1="803.5" x2="934.5" y1="115.6211" y2="115.6211"/><text fill="#000000" font-family="sans-serif" font-size="14" lengthAdjust="spacing" textLength="121" x="808.5" y="133.1563">getUniqueID(): int</text></g><!--MD5=[45a5491ac94231a5f43c6afc127c44f8]
class GraphObject--><g id="elem_GraphObject"><rect codeLine="10" fill="#F1F1F1" height="205.0156" id="GraphObject" rx="2.5" ry="2.5" style="stroke:#181818;stroke-width:0.5;" width="295" x="721.5" y="236.5"/><text fill="#000000" font-family="sans-serif" font-size="12" font-style="italic" lengthAdjust="spacing" textLength="59" x="839.5" y="253.1016">«abstract»</text><text fill="#000000" font-family="sans-serif" font-size="14" font-style="italic" lengthAdjust="spacing" textLength="86" x="826" y="269.168">GraphObject</text><line style="stroke:#181818;stroke-width:0.5;" x1="722.5" x2="1015.5" y1="277.1211" y2="277.1211"/><text fill="#000000" font-family="sans-serif" font-size="14" lengthAdjust="spacing" textLength="97" x="727.5" y="294.6563">#uniqueID: int</text><text fill="#000000" font-family="sans-serif" font-size="14" lengthAdjust="spacing" textLength="91" x="727.5" y="311.1445">#label: String</text><line style="stroke:#181818;stroke-width:0.5;" x1="722.5" x2="1015.5" y1="318.0977" y2="318.0977"/><text fill="#000000" font-family="sans-serif" font-size="14" lengthAdjust="spacing" textLength="283" x="727.5" y="335.6328">#GraphObject(uniqueID: int, label: String)</text><text fill="#000000" font-family="sans-serif" font-size="14" lengthAdjust="spacing" textLength="193" x="727.5" y="352.1211">#GraphObject(uniqueID: int)</text><text fill="#000000" font-family="sans-serif" font-size="14" lengthAdjust="spacing" textLength="191" x="727.5" y="368.6094">#GraphObject(GraphObject)</text><text fill="#000000" font-family="sans-serif" font-size="14" lengthAdjust="spacing" textLength="132" x="727.5" y="385.0977">+getUniqueID(): int</text><text fill="#000000" font-family="sans-serif" font-size="14" lengthAdjust="spacing" textLength="128" x="727.5" y="401.5859">+getLabel(): String</text><text fill="#000000" font-family="sans-serif" font-size="14" lengthAdjust="spacing" textLength="159" x="727.5" y="418.0742">+setLabel(label: String)</text><text fill="#000000" font-family="sans-serif" font-size="14" lengthAdjust="spacing" textLength="116" x="727.5" y="434.5625">+hashCode(): int</text></g><!--MD5=[706e73df52f3df32f52be1ce9adb217e]
class Graph--><g id="elem_Graph"><rect codeLine="22" fill="#F1F1F1" height="223.8594" id="Graph" rx="2.5" ry="2.5" style="stroke:#181818;stroke-width:0.5;" width="445" x="241.5" y="227"/><text fill="#000000" font-family="sans-serif" font-size="14" lengthAdjust="spacing" textLength="42" x="443" y="245.5352">Graph</text><line style="stroke:#181818;stroke-width:0.5;" x1="242.5" x2="685.5" y1="253.4883" y2="253.4883"/><line style="stroke:#181818;stroke-width:0.5;" x1="242.5" x2="685.5" y1="261.4883" y2="261.4883"/><text fill="#000000" font-family="sans-serif" font-size="14" lengthAdjust="spacing" textLength="247" x="247.5" y="279.0234">+addNode(nodeLabel: String): Node</text><text fill="#000000" font-family="sans-serif" font-size="14" lengthAdjust="spacing" textLength="433" x="247.5" y="295.5117">+addEdge(source: Node, edgeLabel: String, target: Node): Edge</text><text fill="#000000" font-family="sans-serif" font-size="14" lengthAdjust="spacing" textLength="306" x="247.5" y="312">+addEdge(source: Node, target: Node): Edge</text><text fill="#000000" font-family="sans-serif" font-size="14" lengthAdjust="spacing" textLength="173" x="247.5" y="328.4883">+getNodes(): Set&lt;Node&gt;</text><text fill="#000000" font-family="sans-serif" font-size="14" lengthAdjust="spacing" textLength="169" x="247.5" y="344.9766">+getEdges(): Set&lt;Edge&gt;</text><text fill="#000000" font-family="sans-serif" font-size="14" lengthAdjust="spacing" textLength="340" x="247.5" y="361.4648">+getEdgesConnectedTo(node: Node): Set&lt;Edge&gt;</text><text fill="#000000" font-family="sans-serif" font-size="14" lengthAdjust="spacing" textLength="273" x="247.5" y="377.9531">+getOutEdges(node: Node): Set&lt;Edge&gt;</text><text fill="#000000" font-family="sans-serif" font-size="14" lengthAdjust="spacing" textLength="97" x="247.5" y="394.4414">+getSize(): int</text><text fill="#000000" font-family="sans-serif" font-size="14" lengthAdjust="spacing" textLength="222" x="247.5" y="410.9297">+contains(node: Node): boolean</text><text fill="#000000" font-family="sans-serif" font-size="14" lengthAdjust="spacing" textLength="150" x="247.5" y="427.418">+hasEdges(): boolean</text><text fill="#000000" font-family="sans-serif" font-size="14" lengthAdjust="spacing" textLength="249" x="247.5" y="443.9063">-deepCopy(Set&lt;Edge&gt;): Set&lt;Edge&gt;</text></g><!--MD5=[3fee75583bb7a64f68d843a3c9534ab3]
class Node--><g id="elem_Node"><rect codeLine="36" fill="#F1F1F1" height="108.4414" id="Node" rx="2.5" ry="2.5" style="stroke:#181818;stroke-width:0.5;" width="231" x="590.5" y="746"/><text fill="#000000" font-family="sans-serif" font-size="14" lengthAdjust="spacing" textLength="36" x="688" y="764.5352">Node</text><line style="stroke:#181818;stroke-width:0.5;" x1="591.5" x2="820.5" y1="772.4883" y2="772.4883"/><line style="stroke:#181818;stroke-width:0.5;" x1="591.5" x2="820.5" y1="780.4883" y2="780.4883"/><text fill="#000000" font-family="sans-serif" font-size="14" lengthAdjust="spacing" textLength="184" x="596.5" y="798.0234">~Node(id: int, label: String)</text><text fill="#000000" font-family="sans-serif" font-size="14" lengthAdjust="spacing" textLength="93" x="596.5" y="814.5117">+Node(Node)</text><text fill="#000000" font-family="sans-serif" font-size="14" lengthAdjust="spacing" textLength="219" x="596.5" y="831">+equals(other: Object): boolean</text><text fill="#000000" font-family="sans-serif" font-size="14" lengthAdjust="spacing" textLength="125" x="596.5" y="847.4883">+toString(): String</text></g><!--MD5=[2e2f8c8f62c4eb3bc59a59727cfd81a5]
class Edge--><g id="elem_Edge"><rect codeLine="43" fill="#F1F1F1" height="141.418" id="Edge" rx="2.5" ry="2.5" style="stroke:#181818;stroke-width:0.5;" width="385" x="594.5" y="528"/><text fill="#000000" font-family="sans-serif" font-size="14" lengthAdjust="spacing" textLength="34" x="770" y="546.5352">Edge</text><line style="stroke:#181818;stroke-width:0.5;" x1="595.5" x2="978.5" y1="554.4883" y2="554.4883"/><line style="stroke:#181818;stroke-width:0.5;" x1="595.5" x2="978.5" y1="562.4883" y2="562.4883"/><text fill="#000000" font-family="sans-serif" font-size="14" lengthAdjust="spacing" textLength="373" x="600.5" y="580.0234">~Edge(id: int, source: Node, label: String, target: Node)</text><text fill="#000000" font-family="sans-serif" font-size="14" lengthAdjust="spacing" textLength="87" x="600.5" y="596.5117">~Edge(Edge)</text><text fill="#000000" font-family="sans-serif" font-size="14" lengthAdjust="spacing" textLength="134" x="600.5" y="613">+getSource(): Node</text><text fill="#000000" font-family="sans-serif" font-size="14" lengthAdjust="spacing" textLength="132" x="600.5" y="629.4883">+getTarget(): Node</text><text fill="#000000" font-family="sans-serif" font-size="14" lengthAdjust="spacing" textLength="219" x="600.5" y="645.9766">+equals(other: Object): boolean</text><text fill="#000000" font-family="sans-serif" font-size="14" lengthAdjust="spacing" textLength="125" x="600.5" y="662.4648">+toString(): String</text></g><!--MD5=[70ed871e77a41e424a5ed7fef31572b8]
class IDGenerator--><g id="elem_IDGenerator"><rect codeLine="52" fill="#F1F1F1" height="124.9297" id="IDGenerator" rx="2.5" ry="2.5" style="stroke:#181818;stroke-width:0.5;" width="203" x="362.5" y="41"/><text fill="#000000" font-family="sans-serif" font-size="14" lengthAdjust="spacing" textLength="83" x="422.5" y="59.5352">IDGenerator</text><line style="stroke:#181818;stroke-width:0.5;" x1="363.5" x2="564.5" y1="67.4883" y2="67.4883"/><text fill="#000000" font-family="sans-serif" font-size="14" lengthAdjust="spacing" textLength="79" x="368.5" y="85.0234">-nextID: int</text><text fill="#000000" font-family="sans-serif" font-size="14" lengthAdjust="spacing" text-decoration="underline" textLength="156" x="368.5" y="101.5117">-instance: IDGenerator</text><line style="stroke:#181818;stroke-width:0.5;" x1="363.5" x2="564.5" y1="108.4648" y2="108.4648"/><text fill="#000000" font-family="sans-serif" font-size="14" lengthAdjust="spacing" textLength="101" x="368.5" y="126">-IDGenerator()</text><text fill="#000000" font-family="sans-serif" font-size="14" lengthAdjust="spacing" text-decoration="underline" textLength="191" x="368.5" y="142.4883">+getInstance(): IDGenerator</text><text fill="#000000" font-family="sans-serif" font-size="14" lengthAdjust="spacing" textLength="115" x="368.5" y="158.9766">+getNextID(): int</text></g><!--MD5=[ba6cb0cf03e17925b29ac1ef1842803e]
class NodeNotFoundException--><g id="elem_NodeNotFoundException"><rect codeLine="60" fill="#F1F1F1" height="91.9531" id="NodeNotFoundException" rx="2.5" ry="2.5" style="stroke:#181818;stroke-width:0.5;" width="284" x="152" y="552.5"/><text fill="#000000" font-family="sans-serif" font-size="14" lengthAdjust="spacing" textLength="172" x="208" y="571.0352">NodeNotFoundException</text><line style="stroke:#181818;stroke-width:0.5;" x1="153" x2="435" y1="578.9883" y2="578.9883"/><text fill="#000000" font-family="sans-serif" font-size="14" lengthAdjust="spacing" text-decoration="underline" textLength="204" x="158" y="596.5234">-{final} serialVersionUID: long</text><line style="stroke:#181818;stroke-width:0.5;" x1="153" x2="435" y1="603.4766" y2="603.4766"/><text fill="#000000" font-family="sans-serif" font-size="14" lengthAdjust="spacing" textLength="272" x="158" y="621.0117">+NodeNotFoundException(node: Node)</text><text fill="#000000" font-family="sans-serif" font-size="14" lengthAdjust="spacing" textLength="123" x="158" y="637.5">+getNode(): Node</text></g><!--MD5=[46c05dfe24a0851e179497c4631d3ff2]
class java.lang.Exception--><g id="elem_java.lang.Exception"><rect fill="#F1F1F1" height="42.4883" id="java.lang.Exception" rx="2.5" ry="2.5" style="stroke:#181818;stroke-width:0.5;" width="74" x="22" y="318"/><text fill="#000000" font-family="sans-serif" font-size="14" lengthAdjust="spacing" textLength="68" x="25" y="336.5352">Exception</text><line style="stroke:#181818;stroke-width:0.5;" x1="23" x2="95" y1="344.4883" y2="344.4883"/><line style="stroke:#181818;stroke-width:0.5;" x1="23" x2="95" y1="352.4883" y2="352.4883"/></g><!--MD5=[b633099da10ac253e099b79efabfb3de]
link Graph to Node--><g id="link_Graph_Node"><path codeLine="66" d="M464.5993,463.2155 C464.5993,463.2155 485.58,608.46 524,669 C541.19,696.09 566.24,719.23 592.29,738.15 " fill="none" id="Graph-Node" style="stroke:#181818;stroke-width:1.0;"/><polygon fill="#181818" points="603.09,745.73,598.0222,737.2851,598.9977,742.8572,593.4256,743.8327,603.09,745.73" style="stroke:#181818;stroke-width:1.0;"/><line style="stroke:#181818;stroke-width:1.0;" x1="598.9977" x2="592.445" y1="742.8572" y2="738.265"/><polygon fill="#181818" points="463.69,451.25,460.1561,457.5358,464.5993,463.2155,468.1331,456.9297,463.69,451.25" style="stroke:#181818;stroke-width:1.0;"/><text fill="#000000" font-family="sans-serif" font-size="13" lengthAdjust="spacing" textLength="51" x="525" y="603.5684">{unique}</text><text fill="#000000" font-family="sans-serif" font-size="13" lengthAdjust="spacing" textLength="6" x="583.5203" y="735.3757">*</text></g><!--MD5=[627c719221e760b279cf7d2e52d47228]
link Graph to Edge--><g id="link_Graph_Edge"><path codeLine="67" d="M612.6956,458.5599 C612.6956,458.5599 665.21,500.41 688.99,519.36 " fill="none" id="Graph-Edge" style="stroke:#181818;stroke-width:1.0;"/><polygon fill="#181818" points="699.39,527.66,694.8474,518.9213,695.4808,524.5426,689.8595,525.1759,699.39,527.66" style="stroke:#181818;stroke-width:1.0;"/><line style="stroke:#181818;stroke-width:1.0;" x1="695.4808" x2="689.225" y1="524.5426" y2="519.555"/><polygon fill="#181818" points="603.32,451.07,605.5111,457.9401,612.6956,458.5599,610.5044,451.6898,603.32,451.07" style="stroke:#181818;stroke-width:1.0;"/><text fill="#000000" font-family="sans-serif" font-size="13" lengthAdjust="spacing" textLength="51" x="655" y="494.5684">{unique}</text><text fill="#000000" font-family="sans-serif" font-size="13" lengthAdjust="spacing" textLength="6" x="684.0458" y="517.144">*</text></g><!--MD5=[238de6f790bfca2ac199327ec31dcf42]
reverse link IDGenerator to Graph--><g id="link_IDGenerator_Graph"><path codeLine="68" d="M464,171.46 C464,188.75 464,207.83 464,226.72 " fill="none" id="IDGenerator-backto-Graph" style="stroke:#181818;stroke-width:1.0;stroke-dasharray:7.0,7.0;"/><polygon fill="#181818" points="464,166.15,460,175.15,464,171.15,468,175.15,464,166.15" style="stroke:#181818;stroke-width:1.0;"/></g><!--MD5=[91790c6417f8895e986e4c2fcc1e34d2]
reverse link GraphObject to Node--><g id="link_GraphObject_Node"><path codeLine="69" d="M966.98,458.19 C1008.65,523.46 1039.03,604.19 997,669 C958.31,728.66 885.14,761.18 821.86,778.77 " fill="none" id="GraphObject-backto-Node" style="stroke:#181818;stroke-width:1.0;"/><polygon fill="none" points="961.13,462.04,955.88,441.51,972.79,454.28,961.13,462.04" style="stroke:#181818;stroke-width:1.0;"/></g><!--MD5=[01bfe560649763571579e5117ffd3d61]
reverse link GraphObject to Edge--><g id="link_GraphObject_Edge"><path codeLine="70" d="M830.5,460.89 C823.2,483.82 815.79,507.08 809.21,527.76 " fill="none" id="GraphObject-backto-Edge" style="stroke:#181818;stroke-width:1.0;"/><polygon fill="none" points="823.85,458.7,836.59,441.77,837.19,462.95,823.85,458.7" style="stroke:#181818;stroke-width:1.0;"/></g><!--MD5=[6815c6ee6e4d35abc27ed97bff30f1d6]
reverse link IIdentifiable to GraphObject--><g id="link_IIdentifiable_GraphObject"><path codeLine="71" d="M869,160.22 C869,183.07 869,210.26 869,236.41 " fill="none" id="IIdentifiable-backto-GraphObject" style="stroke:#181818;stroke-width:1.0;stroke-dasharray:7.0,7.0;"/><polygon fill="none" points="862,160.22,869,140.22,876,160.22,862,160.22" style="stroke:#181818;stroke-width:1.0;"/></g><!--MD5=[9aca9f1b5d1d8f0105680cd048b25142]
link Edge to Node--><g id="link_Edge_Node"><path codeLine="72" d="M761.5952,680.4431 C761.5952,680.4431 752.59,705.02 748,716 C745.56,721.84 742.88,727.84 740.1,733.8 " fill="none" id="Edge-Node" style="stroke:#181818;stroke-width:1.0;"/><polygon fill="#181818" points="734.27,745.96,741.7638,739.5692,736.4288,741.4501,734.548,736.1151,734.27,745.96" style="stroke:#181818;stroke-width:1.0;"/><line style="stroke:#181818;stroke-width:1.0;" x1="736.4288" x2="739.895" y1="741.4501" y2="734.235"/><polygon fill="none" points="765.54,669.11,759.7899,673.4616,761.5952,680.4431,767.3453,676.0915,765.54,669.11" style="stroke:#181818;stroke-width:1.0;"/><text fill="#000000" font-family="sans-serif" font-size="13" lengthAdjust="spacing" textLength="42" x="757" y="712.5684">source</text><text fill="#000000" font-family="sans-serif" font-size="13" lengthAdjust="spacing" textLength="8" x="729.5313" y="735.2501">1</text></g><!--MD5=[9aca9f1b5d1d8f0105680cd048b25142]
link Edge to Node--><g id="link_Edge_Node"><path codeLine="73" d="M708.6791,679.164 C708.6791,679.164 701.41,692.63 699,699 C695.01,709.53 693.49,721.12 693.43,732.57 " fill="none" id="Edge-Node-1" style="stroke:#181818;stroke-width:1.0;"/><polygon fill="#181818" points="693.99,745.87,697.6106,736.7108,693.7812,740.8744,689.6176,737.0449,693.99,745.87" style="stroke:#181818;stroke-width:1.0;"/><line style="stroke:#181818;stroke-width:1.0;" x1="693.7812" x2="693.445" y1="740.8744" y2="732.88"/><polygon fill="none" points="715.09,669.02,708.5032,671.955,708.6791,679.164,715.2659,676.229,715.09,669.02" style="stroke:#181818;stroke-width:1.0;"/><text fill="#000000" font-family="sans-serif" font-size="13" lengthAdjust="spacing" textLength="37" x="702" y="712.5684">target</text><text fill="#000000" font-family="sans-serif" font-size="13" lengthAdjust="spacing" textLength="8" x="683.8387" y="735.148">1</text></g><!--MD5=[cf44676dc0f23d4544f6f69424f28a90]
link NodeNotFoundException to Node--><g id="link_NodeNotFoundException_Node"><path codeLine="74" d="M377.1935,650.8176 C377.1935,650.8176 457.04,696.72 497,716 C522.77,728.43 550.91,740.55 577.95,751.51 " fill="none" id="NodeNotFoundException-Node" style="stroke:#181818;stroke-width:1.0;"/><polygon fill="#181818" points="590.28,756.46,583.4165,749.3966,585.6395,754.5983,580.4378,756.8214,590.28,756.46" style="stroke:#181818;stroke-width:1.0;"/><line style="stroke:#181818;stroke-width:1.0;" x1="585.6395" x2="578.225" y1="754.5983" y2="751.615"/><polygon fill="none" points="366.87,644.7,369.9925,651.2,377.1935,650.8176,374.071,644.3176,366.87,644.7" style="stroke:#181818;stroke-width:1.0;"/><text fill="#000000" font-family="sans-serif" font-size="13" lengthAdjust="spacing" textLength="8" x="574.6104" y="750.7544">1</text></g><!--MD5=[206c942ce207c31c315d2b768eafb7e5]
reverse link java.lang.Exception to NodeNotFoundException--><g id="link_java.lang.Exception_NodeNotFoundException"><path codeLine="75" d="M81.92,377.22 C96.33,399.51 115.94,427.89 136,451 C167.75,487.58 207.81,524.64 239.65,552.34 " fill="none" id="java.lang.Exception-backto-NodeNotFoundException" style="stroke:#181818;stroke-width:1.0;"/><polygon fill="none" points="75.92,380.84,71.14,360.19,87.75,373.35,75.92,380.84" style="stroke:#181818;stroke-width:1.0;"/></g><!--MD5=[c5bb87c35607bcec073602249c8752c1]
link Graph to NodeNotFoundException--><g id="link_Graph_NodeNotFoundException"><path codeLine="76" d="M390.67,451.07 C368.32,484.92 344.88,520.44 326.67,548.01 " fill="none" id="Graph-to-NodeNotFoundException" style="stroke:#181818;stroke-width:1.0;stroke-dasharray:7.0,7.0;"/><polygon fill="#181818" points="323.8,552.37,332.0996,547.0674,326.557,548.1988,325.4256,542.6562,323.8,552.37" style="stroke:#181818;stroke-width:1.0;"/></g><!--MD5=[8c33450f411073c2b2a7453e58a75dd0]
@startuml p6_string_graph_model
skinparam classAttributeIconSize 0
hide circle
skinparam genericDisplay old

package es.ua.dlsi.prog3.p6.graph {
    interface IIdentifiable <<Interface>> {
        getUniqueID(): int
    }

    abstract class GraphObject <<abstract>> {
        #uniqueID: int
        #label: String
        #GraphObject(uniqueID: int, label: String)
        #GraphObject(uniqueID: int)
        #GraphObject(GraphObject)
        +getUniqueID(): int
        +getLabel(): String
        +setLabel(label: String)
        +hashCode(): int
    }

    class Graph {
        +addNode(nodeLabel: String): Node
        +addEdge(source: Node, edgeLabel: String, target: Node): Edge
        +addEdge(source: Node, target: Node): Edge
        +getNodes(): Set<Node>
        +getEdges(): Set<Edge>
        +getEdgesConnectedTo(node: Node): Set<Edge>
        +getOutEdges(node: Node): Set<Edge>
        +getSize(): int
        +contains(node: Node): boolean
        +hasEdges(): boolean
        -deepCopy(Set<Edge>): Set<Edge>
    }

    class Node {
        ~Node(id: int, label: String)
        +Node(Node)
        +equals(other: Object): boolean
        +toString(): String
    }

    class Edge {
        ~Edge(id: int, source: Node, label: String, target: Node)
        ~Edge(Edge)
        +getSource(): Node
        +getTarget(): Node
        +equals(other: Object): boolean
        +toString(): String
    }

    class IDGenerator {
        -nextID: int
        -{static} instance: IDGenerator
        -IDGenerator()
        +{static} getInstance(): IDGenerator
        +getNextID(): int
    }

    class NodeNotFoundException {
        -{static} {final} serialVersionUID: long
        +NodeNotFoundException(node: Node)
        +getNode(): Node
    }

    Graph *-> "*" Node: "{unique}"
    Graph *-> "*" Edge: "{unique}"
    IDGenerator <.. Graph
    GraphObject <|- - Node
    GraphObject <|- - Edge
    IIdentifiable <|.. GraphObject
    Edge o- -> "1" Node: "-source"
    Edge o- -> "1" Node: "-target"
    NodeNotFoundException o- -> "1"  Node
    java.lang.Exception <|- - NodeNotFoundException
    Graph ..> NodeNotFoundException
}

@end

PlantUML version 1.2022.7(Mon Aug 22 19:01:30 CEST 2022)
(GPL source distribution)
Java Runtime: Java(TM) SE Runtime Environment
JVM: Java HotSpot(TM) 64-Bit Server VM
Default Encoding: UTF-8
Language: es
Country: ES
--></g></svg>